<svg width="24" height="24" viewBox="0 0 24 24" fill="none" xmlns="http://www.w3.org/2000/svg">
<path d="M4.8501 15.85C4.8501 14.8127 4.8501 14.2946 5.1724 13.9723C5.4947 13.65 6.0128 13.65 7.0501 13.65H8.1501C9.1874 13.65 9.7055 13.65 10.0278 13.9723C10.3501 14.2946 10.3501 14.8127 10.3501 15.85V16.95C10.3501 17.9873 10.3501 18.5054 10.0278 18.8277C9.7055 19.15 9.1874 19.15 8.1501 19.15C6.5947 19.15 5.817 19.15 5.3341 18.666C4.8501 18.1831 4.8501 17.4054 4.8501 15.85ZM4.8501 8.15001C4.8501 6.59461 4.8501 5.81691 5.3341 5.33401C5.817 4.85001 6.5947 4.85001 8.1501 4.85001C9.1874 4.85001 9.7055 4.85001 10.0278 5.17231C10.3501 5.49461 10.3501 6.01271 10.3501 7.05001V8.15001C10.3501 9.18731 10.3501 9.70541 10.0278 10.0277C9.7055 10.35 9.1874 10.35 8.1501 10.35H7.0501C6.0128 10.35 5.4947 10.35 5.1724 10.0277C4.8501 9.70541 4.8501 9.18731 4.8501 8.15001ZM13.6501 15.85C13.6501 14.8127 13.6501 14.2946 13.9724 13.9723C14.2947 13.65 14.8128 13.65 15.8501 13.65H16.9501C17.9874 13.65 18.5055 13.65 18.8278 13.9723C19.1501 14.2946 19.1501 14.8127 19.1501 15.85C19.1501 17.4054 19.1501 18.1831 18.6661 18.666C18.1832 19.15 17.4055 19.15 15.8501 19.15C14.8128 19.15 14.2947 19.15 13.9724 18.8277C13.6501 18.5054 13.6501 17.9873 13.6501 16.95V15.85ZM13.6501 7.05001C13.6501 6.01271 13.6501 5.49461 13.9724 5.17231C14.2947 4.85001 14.8128 4.85001 15.8501 4.85001C17.4055 4.85001 18.1832 4.85001 18.6661 5.33401C19.1501 5.81691 19.1501 6.59461 19.1501 8.15001C19.1501 9.18731 19.1501 9.70541 18.8278 10.0277C18.5055 10.35 17.9874 10.35 16.9501 10.35H15.8501C14.8128 10.35 14.2947 10.35 13.9724 10.0277C13.6501 9.70541 13.6501 9.18731 13.6501 8.15001V7.05001Z" stroke="black" stroke-width="1.5"/>
<path d="M23 14.2C23 18.3481 23 20.4227 21.7108 21.7108C20.4216 22.9989 18.3481 23 14.2 23M9.8 23C5.6519 23 3.5773 23 2.2892 21.7108C1.0011 20.4216 1 18.3481 1 14.2M9.8 1C5.6519 1 3.5773 1 2.2892 2.2892C1.0011 3.5784 1 5.6519 1 9.8M14.2 1C18.3481 1 20.4227 1 21.7108 2.2892C22.9989 3.5784 23 5.6519 23 9.8" stroke="black" stroke-width="1.5" stroke-linecap="round"/>
</svg>
