<svg width="22" height="22" viewBox="0 0 22 22" fill="none" xmlns="http://www.w3.org/2000/svg">
<path d="M13.0465 1.53488C14.9979 1.53488 16.3844 1.53693 17.4363 1.67814C18.4647 1.81628 19.0581 2.07619 19.491 2.50902C19.9238 2.94186 20.1837 3.53535 20.3219 4.56474C20.4631 5.61665 20.4651 7.00214 20.4651 8.95349C20.4651 9.15703 20.546 9.35223 20.6899 9.49615C20.8338 9.64007 21.029 9.72093 21.2326 9.72093C21.4361 9.72093 21.6313 9.64007 21.7752 9.49615C21.9191 9.35223 22 9.15703 22 8.95349V8.89618C22 7.01544 22 5.52558 21.8434 4.36009C21.6818 3.16084 21.342 2.18977 20.5767 1.42335C19.8102 0.657953 18.8392 0.318233 17.6399 0.156558C16.4734 0 14.9846 0 13.1038 0H13.0465C12.843 0 12.6478 0.0808553 12.5038 0.224779C12.3599 0.368702 12.2791 0.563904 12.2791 0.767442C12.2791 0.97098 12.3599 1.16618 12.5038 1.31011C12.6478 1.45403 12.843 1.53488 13.0465 1.53488ZM8.89619 0H8.95349C9.15703 0 9.35223 0.0808553 9.49615 0.224779C9.64007 0.368702 9.72093 0.563904 9.72093 0.767442C9.72093 0.97098 9.64007 1.16618 9.49615 1.31011C9.35223 1.45403 9.15703 1.53488 8.95349 1.53488C7.00214 1.53488 5.61665 1.53693 4.56372 1.67814C3.53535 1.81628 2.94186 2.07619 2.50902 2.50902C2.07619 2.94186 1.81628 3.53535 1.67814 4.56372C1.53693 5.61665 1.53488 7.00214 1.53488 8.95349C1.53488 9.15703 1.45403 9.35223 1.31011 9.49615C1.16618 9.64007 0.97098 9.72093 0.767442 9.72093C0.563904 9.72093 0.368702 9.64007 0.224779 9.49615C0.0808553 9.35223 0 9.15703 0 8.95349V8.89618C0 7.01544 0 5.52558 0.156558 4.36009C0.318233 3.16084 0.657954 2.18977 1.42335 1.42335C2.18977 0.657953 3.16084 0.318233 4.36009 0.156558C5.5266 0 7.01544 0 8.89619 0Z" fill="white"/>
<path d="M4.37617 4.37646C3.83691 4.91572 3.83691 5.78446 3.83691 7.52093C3.83691 8.67823 3.83691 9.25739 4.19608 9.61758C4.55626 9.97674 5.13645 9.97674 6.29273 9.97674H7.52064C8.67794 9.97674 9.2571 9.97674 9.61729 9.61758C9.97645 9.25739 9.97645 8.6772 9.97645 7.52093V6.29302C9.97645 5.13572 9.97645 4.55655 9.61729 4.19637C9.2571 3.8372 8.67691 3.8372 7.52064 3.8372C5.78417 3.8372 4.91543 3.8372 4.37617 4.37646ZM4.37617 17.6235C3.83691 17.0843 3.83691 16.2155 3.83691 14.4791C3.83691 13.3218 3.83691 12.7426 4.19608 12.3824C4.55626 12.0233 5.13645 12.0233 6.29273 12.0233H7.52064C8.67794 12.0233 9.2571 12.0233 9.61729 12.3824C9.97645 12.7426 9.97645 13.3218 9.97645 14.4791V15.707C9.97645 16.8643 9.97645 17.4434 9.61729 17.8026C9.2571 18.1628 8.67691 18.1628 7.52064 18.1628C5.78417 18.1628 4.91543 18.1628 4.37617 17.6235ZM12.023 6.29302C12.023 5.13572 12.023 4.55655 12.3821 4.19637C12.7433 3.8372 13.3225 3.8372 14.4788 3.8372C16.2152 3.8372 17.084 3.8372 17.6232 4.37646C18.1625 4.91572 18.1625 5.78446 18.1625 7.52093C18.1625 8.67823 18.1625 9.25739 17.8023 9.61758C17.4442 9.97674 16.864 9.97674 15.7067 9.97674H14.4788C13.3215 9.97674 12.7423 9.97674 12.3821 9.61758C12.023 9.25739 12.023 8.6772 12.023 7.52093V6.29302ZM12.3831 17.8036C12.023 17.4434 12.023 16.8633 12.023 15.707V14.4791C12.023 13.3218 12.023 12.7426 12.3821 12.3824C12.7433 12.0233 13.3225 12.0233 14.4788 12.0233H15.7067C16.864 12.0233 17.4431 12.0233 17.8023 12.3824C18.1625 12.7426 18.1625 13.3218 18.1625 14.4791C18.1625 16.2155 18.1625 17.0843 17.6232 17.6235C17.084 18.1628 16.2152 18.1628 14.4788 18.1628C13.3215 18.1628 12.7423 18.1628 12.3821 17.8026" fill="white"/>
<path d="M21.2326 12.2791C21.4361 12.2791 21.6313 12.3599 21.7752 12.5038C21.9191 12.6478 22 12.843 22 13.0465V13.1038C22 14.9845 22 16.4744 21.8434 17.6399C21.6818 18.8391 21.342 19.8102 20.5767 20.5766C19.8102 21.342 18.8392 21.6817 17.6399 21.8434C16.4734 22 14.9846 22 13.1038 22H13.0465C12.843 22 12.6478 21.9191 12.5038 21.7752C12.3599 21.6313 12.2791 21.4361 12.2791 21.2325C12.2791 21.029 12.3599 20.8338 12.5038 20.6899C12.6478 20.546 12.843 20.4651 13.0465 20.4651C14.9979 20.4651 16.3844 20.4631 17.4363 20.3218C18.4647 20.1837 19.0581 19.9238 19.491 19.491C19.9238 19.0581 20.1837 18.4646 20.3219 17.4352C20.4631 16.3844 20.4651 14.9978 20.4651 13.0465C20.4651 12.843 20.546 12.6478 20.6899 12.5038C20.8338 12.3599 21.029 12.2791 21.2326 12.2791ZM1.53488 13.0465C1.53488 12.843 1.45403 12.6478 1.31011 12.5038C1.16618 12.3599 0.97098 12.2791 0.767442 12.2791C0.563904 12.2791 0.368702 12.3599 0.224779 12.5038C0.0808553 12.6478 0 12.843 0 13.0465V13.1038C0 14.9845 0 16.4744 0.156558 17.6399C0.318233 18.8391 0.657954 19.8102 1.42335 20.5766C2.18977 21.342 3.16084 21.6817 4.36009 21.8434C5.5266 22 7.01544 22 8.89619 22H8.95349C9.15703 22 9.35223 21.9191 9.49615 21.7752C9.64007 21.6313 9.72093 21.4361 9.72093 21.2325C9.72093 21.029 9.64007 20.8338 9.49615 20.6899C9.35223 20.546 9.15703 20.4651 8.95349 20.4651C7.00214 20.4651 5.61665 20.4631 4.56372 20.3218C3.53535 20.1837 2.94186 19.9238 2.50902 19.491C2.07619 19.0581 1.81628 18.4646 1.67814 17.4352C1.53693 16.3844 1.53488 14.9978 1.53488 13.0465Z" fill="white"/>
</svg>
