<svg width="28" height="20" viewBox="0 0 28 20" fill="none" xmlns="http://www.w3.org/2000/svg">
<path d="M9.8 0C11.256 0 12.684 0.342857 14 0.971428C15.316 0.342857 16.744 0 18.2 0C20.7991 0 23.2918 1.05357 25.1296 2.92893C26.9675 4.8043 28 7.34784 28 10C28 12.6522 26.9675 15.1957 25.1296 17.0711C23.2918 18.9464 20.7991 20 18.2 20C16.744 20 15.316 19.6571 14 19.0286C12.684 19.6571 11.256 20 9.8 20C7.20088 20 4.70821 18.9464 2.87035 17.0711C1.0325 15.1957 0 12.6522 0 10C0 7.34784 1.0325 4.8043 2.87035 2.92893C4.70821 1.05357 7.20088 0 9.8 0ZM18.2 2.85714L16.8 3.01429C18.592 4.87143 19.6 7.38571 19.6 10C19.6 12.6143 18.592 15.1286 16.8 17L18.2 17.1429C20.0565 17.1429 21.837 16.3903 23.1497 15.0508C24.4625 13.7112 25.2 11.8944 25.2 10C25.2 8.1056 24.4625 6.28878 23.1497 4.94924C21.837 3.60969 20.0565 2.85714 18.2 2.85714ZM9.1 10C9.1 12.6714 10.206 15.0857 11.984 16.7857L13.384 16.1286C11.634 14.7 10.5 12.4857 10.5 10C10.5 7.51429 11.634 5.3 13.384 3.87143L11.984 3.21429C11.0733 4.08339 10.3474 5.1342 9.85131 6.30149C9.3552 7.46878 9.09947 8.72766 9.1 10Z" fill="white"/>
</svg>
