<svg width="26" height="30" viewBox="0 0 26 30" fill="none" xmlns="http://www.w3.org/2000/svg">
<path d="M13 17.2405L16.4531 19.7089C16.6156 19.8354 16.7781 19.842 16.9406 19.7286C17.1031 19.6152 17.1573 19.4694 17.1031 19.2911L15.7625 15.2658L19.3781 12.6076C19.5135 12.481 19.5542 12.3352 19.5 12.1701C19.4458 12.0051 19.324 11.923 19.1344 11.9241H14.7875L13.4062 7.86076C13.3521 7.68354 13.2167 7.59494 13 7.59494C12.7833 7.59494 12.6479 7.68354 12.5937 7.86076L11.2125 11.9241H6.86562C6.67604 11.9241 6.54712 12.0066 6.47887 12.1716C6.41062 12.3367 6.44475 12.482 6.58125 12.6076L10.1562 15.2658L8.81562 19.3291C8.76146 19.5063 8.81562 19.6522 8.97812 19.7666C9.14062 19.881 9.30312 19.8744 9.46562 19.7468L13 17.2405ZM13 30C12.8104 30 12.6344 29.9873 12.4719 29.962C12.3094 29.9367 12.1469 29.8987 11.9844 29.8481C8.32812 28.7089 5.41667 26.601 3.25 23.5246C1.08333 20.4481 0 17.1382 0 13.5949V6.41772C0 5.78481 0.196625 5.21519 0.589875 4.70886C0.983125 4.20253 1.49067 3.83544 2.1125 3.60759L11.8625 0.189873C12.2417 0.0632911 12.6208 0 13 0C13.3792 0 13.7583 0.0632911 14.1375 0.189873L23.8875 3.60759C24.5104 3.83544 25.0185 4.20253 25.4117 4.70886C25.805 5.21519 26.0011 5.78481 26 6.41772V13.5949C26 17.1392 24.9167 20.4496 22.75 23.5261C20.5833 26.6025 17.6719 28.7099 14.0156 29.8481C13.8531 29.8987 13.6906 29.9367 13.5281 29.962C13.3656 29.9873 13.1896 30 13 30Z" fill="white"/>
</svg>
