<svg width="22" height="22" viewBox="0 0 22 22" fill="none" xmlns="http://www.w3.org/2000/svg">
<g clip-path="url(#clip0_42_282)">
<mask id="mask0_42_282" style="mask-type:luminance" maskUnits="userSpaceOnUse" x="0" y="0" width="22" height="22">
<path d="M22 0H0V22H22V0Z" fill="white"/>
</mask>
<g mask="url(#mask0_42_282)">
<path fill-rule="evenodd" clip-rule="evenodd" d="M9.42857 4.71428C9.42857 5.9646 8.93189 7.1637 8.04779 8.04779C7.1637 8.93189 5.9646 9.42857 4.71428 9.42857C3.46398 9.42857 2.26489 8.93189 1.38079 8.04779C0.496682 7.1637 0 5.9646 0 4.71428C0 3.46398 0.496682 2.26489 1.38079 1.38079C2.26489 0.496682 3.46398 0 4.71428 0C5.9646 0 7.1637 0.496682 8.04779 1.38079C8.93189 2.26489 9.42857 3.46398 9.42857 4.71428ZM22 4.71428C22 5.33338 21.878 5.94641 21.6411 6.51837C21.4042 7.09033 21.057 7.61003 20.6192 8.04779C20.1814 8.48555 19.6618 8.83281 19.0898 9.06972C18.5178 9.30663 17.9048 9.42857 17.2857 9.42857C16.6666 9.42857 16.0535 9.30663 15.4817 9.06972C14.9097 8.83281 14.3899 8.48555 13.9523 8.04779C13.5144 7.61003 13.1672 7.09033 12.9303 6.51837C12.6934 5.94641 12.5714 5.33338 12.5714 4.71428C12.5714 3.46398 13.0681 2.26489 13.9523 1.38079C14.8363 0.496683 16.0354 9.93461e-08 17.2857 9.93461e-08C18.536 9.93461e-08 19.7351 0.496683 20.6192 1.38079C21.5033 2.26489 22 3.46398 22 4.71428ZM4.71428 22C5.33338 22 5.94641 21.878 6.51837 21.6411C7.09033 21.4042 7.61003 21.057 8.04779 20.6192C8.48555 20.1814 8.83281 19.6618 9.06972 19.0898C9.30663 18.5178 9.42857 17.9048 9.42857 17.2857C9.42857 16.6666 9.30663 16.0535 9.06972 15.4817C8.83281 14.9097 8.48555 14.3899 8.04779 13.9523C7.61003 13.5144 7.09033 13.1672 6.51837 12.9303C5.94641 12.6934 5.33338 12.5714 4.71428 12.5714C3.46398 12.5714 2.26489 13.0681 1.38079 13.9523C0.496683 14.8363 9.93461e-08 16.0354 9.93461e-08 17.2857C9.93461e-08 18.536 0.496683 19.7351 1.38079 20.6192C2.26489 21.5033 3.46398 22 4.71428 22ZM22 17.2857C22 17.9048 21.878 18.5178 21.6411 19.0898C21.4042 19.6618 21.057 20.1814 20.6192 20.6192C20.1814 21.057 19.6618 21.4042 19.0898 21.6411C18.5178 21.878 17.9048 22 17.2857 22C16.6666 22 16.0535 21.878 15.4817 21.6411C14.9097 21.4042 14.3899 21.057 13.9523 20.6192C13.5144 20.1814 13.1672 19.6618 12.9303 19.0898C12.6934 18.5178 12.5714 17.9048 12.5714 17.2857C12.5714 16.0354 13.0681 14.8363 13.9523 13.9523C14.8363 13.0681 16.0354 12.5714 17.2857 12.5714C18.536 12.5714 19.7351 13.0681 20.6192 13.9523C21.5033 14.8363 22 16.0354 22 17.2857Z" fill="white"/>
</g>
</g>
<defs>
<clipPath id="clip0_42_282">
<rect width="22" height="22" fill="white"/>
</clipPath>
</defs>
</svg>
