<svg width="24" height="24" viewBox="0 0 24 24" fill="none" xmlns="http://www.w3.org/2000/svg">
<path d="M5.65385 10.3077C6.265 10.3077 6.87017 10.1873 7.4348 9.95344C7.99943 9.71956 8.51246 9.37676 8.94461 8.94461C9.37676 8.51246 9.71956 7.99943 9.95344 7.4348C10.1873 6.87017 10.3077 6.265 10.3077 5.65385C10.3077 5.04269 10.1873 4.43753 9.95344 3.8729C9.71956 3.30827 9.37676 2.79523 8.94461 2.36308C8.51246 1.93093 7.99943 1.58813 7.4348 1.35425C6.87017 1.12038 6.265 1 5.65385 1C4.41957 1 3.23585 1.49031 2.36308 2.36308C1.49031 3.23585 1 4.41957 1 5.65385C1 6.88812 1.49031 8.07185 2.36308 8.94461C3.23585 9.81738 4.41957 10.3077 5.65385 10.3077ZM18.3462 10.3077C18.9573 10.3077 19.5625 10.1873 20.1271 9.95344C20.6917 9.71956 21.2048 9.37676 21.6369 8.94461C22.0691 8.51246 22.4119 7.99943 22.6457 7.4348C22.8796 6.87017 23 6.265 23 5.65385C23 5.04269 22.8796 4.43753 22.6457 3.8729C22.4119 3.30827 22.0691 2.79523 21.6369 2.36308C21.2048 1.93093 20.6917 1.58813 20.1271 1.35425C19.5625 1.12038 18.9573 1 18.3462 1C17.1119 1 15.9282 1.49031 15.0554 2.36308C14.1826 3.23585 13.6923 4.41957 13.6923 5.65385C13.6923 6.88812 14.1826 8.07185 15.0554 8.94461C15.9282 9.81738 17.1119 10.3077 18.3462 10.3077ZM5.65385 23C6.88812 23 8.07185 22.5097 8.94461 21.6369C9.81738 20.7642 10.3077 19.5804 10.3077 18.3462C10.3077 17.1119 9.81738 15.9282 8.94461 15.0554C8.07185 14.1826 6.88812 13.6923 5.65385 13.6923C4.41957 13.6923 3.23585 14.1826 2.36308 15.0554C1.49031 15.9282 1 17.1119 1 18.3462C1 19.5804 1.49031 20.7642 2.36308 21.6369C3.23585 22.5097 4.41957 23 5.65385 23ZM18.3462 23C19.5804 23 20.7642 22.5097 21.6369 21.6369C22.5097 20.7642 23 19.5804 23 18.3462C23 17.1119 22.5097 15.9282 21.6369 15.0554C20.7642 14.1826 19.5804 13.6923 18.3462 13.6923C17.1119 13.6923 15.9282 14.1826 15.0554 15.0554C14.1826 15.9282 13.6923 17.1119 13.6923 18.3462C13.6923 19.5804 14.1826 20.7642 15.0554 21.6369C15.9282 22.5097 17.1119 23 18.3462 23Z" stroke="black" stroke-width="1.5" stroke-linecap="round" stroke-linejoin="round"/>
</svg>
