<svg width="24" height="24" viewBox="0 0 24 24" fill="none" xmlns="http://www.w3.org/2000/svg">
<path d="M2.57143 5.1442H0.857143C0.629814 5.1442 0.411797 5.0539 0.251051 4.89317C0.0903058 4.73244 0 4.51443 0 4.28712C0 4.05981 0.0903058 3.84181 0.251051 3.68107C0.411797 3.52034 0.629814 3.43004 0.857143 3.43004H7.71429V0.857081C7.71429 0.629769 7.80459 0.411767 7.96534 0.251033C8.12608 0.0902995 8.3441 0 8.57143 0H15.4286C15.6559 0 15.8739 0.0902995 16.0347 0.251033C16.1954 0.411767 16.2857 0.629769 16.2857 0.857081V3.43004H23.1429C23.3702 3.43004 23.5882 3.52034 23.7489 3.68107C23.9097 3.84181 24 4.05981 24 4.28712C24 4.51443 23.9097 4.73244 23.7489 4.89317C23.5882 5.0539 23.3702 5.1442 23.1429 5.1442H21.4286V23.1429C21.4286 23.3702 21.3383 23.5882 21.1775 23.749C21.0168 23.9097 20.7988 24 20.5714 24H3.42857C3.20124 24 2.98323 23.9097 2.82248 23.749C2.66173 23.5882 2.57143 23.3702 2.57143 23.1429V5.1442ZM14.5714 3.43004V1.71588H9.42857V3.43004H14.5714ZM4.28571 22.2858H19.7143V5.1442H4.28571V22.2858ZM9.42857 18.8575C9.20124 18.8575 8.98323 18.7672 8.82248 18.6065C8.66173 18.4457 8.57143 18.2277 8.57143 18.0004V9.42961C8.57143 9.2023 8.66173 8.9843 8.82248 8.82356C8.98323 8.66283 9.20124 8.57253 9.42857 8.57253C9.6559 8.57253 9.87392 8.66283 10.0347 8.82356C10.1954 8.9843 10.2857 9.2023 10.2857 9.42961V18.0004C10.2857 18.2277 10.1954 18.4457 10.0347 18.6065C9.87392 18.7672 9.6559 18.8575 9.42857 18.8575ZM14.5714 18.8575C14.3441 18.8575 14.1261 18.7672 13.9653 18.6065C13.8046 18.4457 13.7143 18.2277 13.7143 18.0004V9.42961C13.7143 9.2023 13.8046 8.9843 13.9653 8.82356C14.1261 8.66283 14.3441 8.57253 14.5714 8.57253C14.7988 8.57253 15.0168 8.66283 15.1775 8.82356C15.3383 8.9843 15.4286 9.2023 15.4286 9.42961V18.0004C15.4286 18.2277 15.3383 18.4457 15.1775 18.6065C15.0168 18.7672 14.7988 18.8575 14.5714 18.8575Z" fill="black"/>
</svg>
