<svg width="29" height="31" viewBox="0 0 29 31" fill="none" xmlns="http://www.w3.org/2000/svg">
<path fill-rule="evenodd" clip-rule="evenodd" d="M15.9502 1.45405e-07C16.6819 -0.000231415 17.3866 0.27612 17.9232 0.773656C18.4597 1.27119 18.7884 1.95314 18.8432 2.6828L18.8505 2.90032V23.2026H20.3006V9.42604C20.3006 9.25634 20.3601 9.09199 20.4687 8.96162C20.5773 8.83125 20.7283 8.74311 20.8952 8.71257L21.0257 8.70096H23.201C23.9327 8.70073 24.6374 8.97708 25.174 9.47462C25.7105 9.97216 26.0392 10.6541 26.094 11.3838L26.1013 11.6013V23.2026H27.5514C27.9211 23.203 28.2766 23.3445 28.5453 23.5982C28.8141 23.852 28.9758 24.1988 28.9975 24.5677C29.0192 24.9367 28.8991 25.3001 28.6619 25.5835C28.4247 25.8669 28.0881 26.0491 27.7211 26.0927L27.5514 26.1029H1.44855C1.07894 26.1025 0.723427 25.961 0.45466 25.7072C0.185893 25.4535 0.0241556 25.1067 0.00249433 24.7377C-0.0191669 24.3687 0.100883 24.0054 0.338115 23.722C0.575347 23.4385 0.911856 23.2564 1.27889 23.2127L1.44855 23.2026H2.89872V2.90032C2.89848 2.1686 3.17483 1.46384 3.67237 0.927308C4.16991 0.390776 4.85186 0.0621298 5.58151 0.00725111L5.79904 1.45405e-07H15.9502ZM13.0498 17.4019H8.69936V20.3022H13.0498V17.4019ZM13.0498 11.6013H8.69936V14.5016H13.0498V11.6013ZM13.0498 5.80064H8.69936V8.70096H13.0498V5.80064Z" fill="white"/>
</svg>
