<svg width="25" height="25" viewBox="0 0 25 25" fill="none" xmlns="http://www.w3.org/2000/svg">
<path d="M21.3126 15.535V21.0548C21.3123 21.8358 21.0019 22.5847 20.4497 23.137C19.8974 23.6892 19.1485 23.9996 18.3675 23.9999H3.94518C3.557 23.9998 3.17268 23.9229 2.81429 23.7738C2.45591 23.6246 2.13053 23.4061 1.85685 23.1308C1.58318 22.8555 1.3666 22.5289 1.21956 22.1696C1.07252 21.8103 0.997923 21.4256 1.00005 21.0374V6.63124C0.997742 6.24367 1.07238 5.8595 1.21963 5.50099C1.36688 5.14247 1.58382 4.81675 1.85788 4.54269C2.13193 4.26863 2.45766 4.05169 2.81617 3.90444C3.17468 3.75719 3.55886 3.68256 3.94643 3.68487H9.46498" stroke="black" stroke-width="1.5" stroke-linecap="round" stroke-linejoin="round"/>
<path d="M21.3125 8.76463L16.2341 3.68493M6.07715 17.2283V14.5368C6.07964 14.093 6.25617 13.6666 6.56821 13.352L18.4184 1.50188C18.5756 1.34288 18.7628 1.21665 18.9692 1.13051C19.1755 1.04436 19.3969 1 19.6205 1C19.8441 1 20.0655 1.04436 20.2719 1.13051C20.4782 1.21665 20.6655 1.34288 20.8227 1.50188L23.4968 4.17599C23.6558 4.33323 23.782 4.52045 23.8682 4.7268C23.9543 4.93315 23.9987 5.15455 23.9987 5.37816C23.9987 5.60178 23.9543 5.82317 23.8682 6.02953C23.782 6.23588 23.6558 6.4231 23.4968 6.58033L11.6467 18.4305C11.3316 18.7434 10.906 18.9198 10.4619 18.9215H7.77038C7.54793 18.9219 7.3276 18.8783 7.12202 18.7933C6.91644 18.7083 6.72965 18.5836 6.57236 18.4263C6.41506 18.269 6.29035 18.0822 6.20537 17.8767C6.1204 17.6711 6.07682 17.4508 6.07715 17.2283Z" stroke="black" stroke-width="1.5" stroke-linecap="round" stroke-linejoin="round"/>
</svg>
