<svg width="22" height="22" viewBox="0 0 22 22" fill="none" xmlns="http://www.w3.org/2000/svg">
<path fill-rule="evenodd" clip-rule="evenodd" d="M13.2 22H8.8C4.6519 22 2.5773 22 1.2892 20.7108C0.00109992 19.4216 0 17.3481 0 13.2V8.8C0 4.6519 -1.3113e-07 2.5773 1.2892 1.2892C2.5784 0.00109992 4.6629 0 8.833 0C9.4996 0 10.0331 -4.5076e-08 10.483 0.0187C10.4683 0.1067 10.461 0.196167 10.461 0.2871L10.45 3.4045C10.45 4.6112 10.45 5.6782 10.5655 6.5373C10.6909 7.469 10.978 8.4007 11.7392 9.1619C12.4982 9.9209 13.431 10.2091 14.3627 10.3345C15.2218 10.45 16.2888 10.45 17.4955 10.45H21.9527C22 11.0374 22 11.759 22 12.7193V13.2C22 17.3481 22 19.4227 20.7108 20.7108C19.4216 21.9989 17.3481 22 13.2 22ZM3.575 13.75C3.575 13.5312 3.66192 13.3214 3.81664 13.1666C3.97135 13.0119 4.1812 12.925 4.4 12.925H13.2C13.4188 12.925 13.6286 13.0119 13.7834 13.1666C13.9381 13.3214 14.025 13.5312 14.025 13.75C14.025 13.9688 13.9381 14.1786 13.7834 14.3334C13.6286 14.4881 13.4188 14.575 13.2 14.575H4.4C4.1812 14.575 3.97135 14.4881 3.81664 14.3334C3.66192 14.1786 3.575 13.9688 3.575 13.75ZM3.575 17.6C3.575 17.3812 3.66192 17.1714 3.81664 17.0166C3.97135 16.8619 4.1812 16.775 4.4 16.775H10.45C10.6688 16.775 10.8786 16.8619 11.0334 17.0166C11.1881 17.1714 11.275 17.3812 11.275 17.6C11.275 17.8188 11.1881 18.0286 11.0334 18.1834C10.8786 18.3381 10.6688 18.425 10.45 18.425H4.4C4.1812 18.425 3.97135 18.3381 3.81664 18.1834C3.66192 18.0286 3.575 17.8188 3.575 17.6Z" fill="white"/>
<path d="M19.0868 6.1787L14.7308 2.2594C13.4911 1.1429 12.8718 0.584103 12.1095 0.292603L12.0996 3.3C12.0996 5.8927 12.0996 7.1896 12.9048 7.9948C13.71 8.8 15.0069 8.8 17.5996 8.8H21.5376C21.1394 8.0256 20.4244 7.3832 19.0868 6.1787Z" fill="white"/>
</svg>
