<svg width="58" height="60" viewBox="0 0 58 60" fill="none" xmlns="http://www.w3.org/2000/svg">
<rect width="57.6" height="60" rx="20" fill="url(#paint0_linear_102_147)"/>
<path d="M25.2621 0.0283856C26.4647 -1.74623e-09 27.634 0 28.8562 0C29.0837 0.143997 29.1545 0.337705 29.1552 0.562806C29.1647 3.77004 29.2251 6.97747 29.1039 10.2319C28.9712 10.6205 28.6887 10.6561 28.4026 10.6885C26.9595 10.8519 25.5491 11.1317 24.209 11.7557C21.9445 12.81 20.1713 14.4254 18.8869 16.6242C17.7792 18.5206 17.2064 20.5971 17.21 22.7961C17.2149 25.7187 18.1428 28.331 19.9466 30.604C20.4898 31.2885 21.1065 31.877 21.768 32.4238C21.9842 32.6025 22.1587 32.7893 22.1374 33.1423C21.9952 33.4537 21.7424 33.5409 21.5009 33.6501C17.3868 35.5102 14.1961 38.4253 12.0353 42.5327C10.5874 45.285 9.79522 48.2139 9.73232 51.3521C9.72646 51.6445 9.735 51.9445 9.44722 52.1812C9.10258 52.3004 8.91466 52.093 8.7244 51.906C4.93294 48.1792 2.31975 43.7109 0.840033 38.5125C0.401869 36.9731 0.160373 35.4118 0.027366 33.7846C-5.04819e-09 31.2476 0 28.7451 0 26.1877C0.211232 25.6374 0.120452 25.1027 0.185212 24.5882C0.44266 22.5427 1.05306 20.5999 1.77215 18.6888C2.98157 15.4746 4.70669 12.571 6.91117 10.0085C11.2193 5.0006 16.5151 1.68818 22.886 0.31396C23.6577 0.147501 24.4525 0.188497 25.2621 0.0283856Z" fill="#C5E7DC"/>
<path d="M28.9635 10.4964C28.9116 6.98554 28.9103 3.54769 28.9091 0.0549208C30.0783 3.72529e-09 31.2476 0 32.4698 0C33.0389 0.222375 33.5913 0.118451 34.1244 0.190375C36.0581 0.451246 37.8972 1.06816 39.7052 1.79348C42.5532 2.93605 45.1499 4.54262 47.4846 6.57054C50.7663 9.42102 53.4157 12.811 55.2661 16.8381C56.2977 19.0831 57.076 21.4195 57.5394 23.8641C57.6844 24.6291 57.6197 25.4158 57.7908 26.2154C57.8182 28.7134 57.8182 31.1768 57.8182 33.6951C57.6069 34.2455 57.6875 34.7793 57.6347 35.295C57.4239 37.3513 56.7994 39.2915 56.0882 41.2037C54.8703 44.4779 53.074 47.3923 50.8724 50.0416C50.308 50.7207 49.6595 51.3221 49.0449 51.9543C48.896 52.1076 48.7338 52.2417 48.461 52.2055C48.062 51.7734 48.1323 51.236 48.1007 50.7522C47.8247 46.5167 46.4063 42.748 43.8207 39.4682C41.777 36.8758 39.2761 34.8922 36.2812 33.6047C36.0916 33.5232 35.8874 33.4638 35.7377 33.2357C35.5914 32.75 35.9268 32.562 36.1811 32.3511C37.5376 31.2264 38.6471 29.8832 39.3846 28.2535C41.4 23.8002 41.0446 19.5128 38.2456 15.56C36.1055 12.5378 33.118 10.9534 29.5 10.6865C29.3322 10.6741 29.1592 10.6835 28.9635 10.4964Z" fill="#B5DBCE"/>
<path d="M9.3871 51.9975C9.5025 50.2638 9.58667 48.5713 10.0199 46.9242C11.7914 40.1881 15.8019 35.5194 22.0802 32.8828C22.369 32.6958 22.5831 32.8037 22.8028 32.9339C24.4313 33.8985 26.1509 34.5607 28.044 34.6878C28.3834 34.7105 28.7632 34.73 29.0545 35.0792C29.2086 35.4225 29.1837 35.7393 29.1839 36.0496C29.189 43.5886 29.1893 51.1276 29.1817 58.6666C29.1813 59.008 29.1813 59.5429 28.8872 59.8828C27.8122 60.0487 26.6094 59.8828 25.3872 59.8828H23.8872L20.143 59.7169C14.8872 59.7589 11.8871 58.3828 10.0198 57.2418C9.84912 57.0976 9.01022 54.8418 9.3871 51.9975Z" fill="#1C6169"/>
<path d="M28.962 60C28.9088 51.798 28.9086 43.5959 28.9273 35.2965C29.2368 34.9157 29.6255 34.9752 29.9637 34.9378C31.7098 34.745 33.3413 34.2191 34.8574 33.2946C35.1043 33.1441 35.3526 32.9116 35.7299 33.0537C38.1348 34.0803 40.3076 35.4016 42.1725 37.2356C45.5662 40.573 47.6202 44.623 48.2343 49.4478C48.3453 50.3202 48.3887 51.1952 48.4364 52.1262C48.4947 52.5527 48.4581 55.833 48.2343 56.02C48.2343 56.0844 48.3871 56.8828 46.3871 57.8828C46.3871 57.8828 45.0286 58.7532 43.0869 59.2828C40.8871 59.8828 37.1962 59.8828 35.9962 59.8828C35.15 60.0722 33.8536 59.9371 32.4435 59.9715C31.2781 60 30.1465 60 28.962 60Z" fill="#0A3B40"/>
<path d="M28.913 35.2756C26.4751 35.2004 24.2316 34.4787 22.1424 33.1168C21.2688 32.3276 20.365 31.6215 19.6666 30.6865C16.8724 26.9457 16.1406 22.8081 17.7842 18.3982C19.435 13.969 22.6745 11.3984 27.1817 10.574C27.7161 10.4762 28.2674 10.4779 28.8619 10.4285C28.9129 10.4234 28.9049 10.4334 28.9024 10.4394C29.0651 10.5674 29.1386 10.7369 29.1513 10.9439C29.1621 11.1191 29.1712 11.2941 29.1713 11.4695C29.1748 19.0507 29.1754 26.632 29.1677 34.2132C29.1674 34.5357 29.2319 34.8824 28.9563 35.2044C28.9141 35.2434 28.9181 35.2656 28.913 35.2756Z" fill="#FFCBA9"/>
<path d="M28.9635 35.2526C28.9106 27.0133 28.9072 18.7832 28.9019 10.4992C31.8661 10.3985 34.4714 11.4244 36.6905 13.4246C39.6362 16.0799 41.0655 19.4853 40.8586 23.5253C40.6623 27.3566 38.9929 30.4446 36.0684 32.7965C35.9801 32.8675 35.8969 32.9451 35.7907 33.0478C34.554 33.8007 33.3303 34.5037 31.9496 34.8515C30.9832 35.095 30.0098 35.2634 28.9635 35.2526Z" fill="#FFB574"/>
<defs>
<linearGradient id="paint0_linear_102_147" x1="16.2" y1="28.8" x2="39.6" y2="28.8" gradientUnits="userSpaceOnUse">
<stop offset="0.0604734" stop-color="#C5E7DC"/>
<stop offset="1" stop-color="#B5DBCE"/>
</linearGradient>
</defs>
</svg>
