<svg width="26" height="24" viewBox="0 0 26 24" fill="none" xmlns="http://www.w3.org/2000/svg">
<path d="M15.2167 11.4602L15.8048 10.8721C16.3235 10.3533 16.5835 10.0934 16.9234 10.2016C17.2645 10.3086 17.3186 10.6168 17.4257 11.2332C17.4727 11.4982 17.4962 11.7699 17.4962 12.0483C17.4966 12.8189 17.3077 13.5778 16.9461 14.2583C16.5845 14.9388 16.0612 15.5201 15.4224 15.951C14.7835 16.3819 14.0486 16.6494 13.2822 16.7298C12.5158 16.8102 11.7414 16.7011 11.027 16.4121M10.4389 12.6776L9.799 13.3174C9.28851 13.8279 9.03209 14.0843 8.69569 13.982C8.35812 13.8797 8.29813 13.5774 8.17815 12.974C8.01078 12.1411 8.07204 11.2785 8.35541 10.4776C8.63879 9.67675 9.13371 8.96755 9.78765 8.4253C10.4416 7.88304 11.2301 7.52795 12.0696 7.39773C12.9091 7.26751 13.7682 7.367 14.5557 7.68566" stroke="black" stroke-width="1.5" stroke-linecap="round" stroke-linejoin="round"/>
<path d="M23.3906 14.5148C24.0046 14.349 24.3116 14.2655 24.4327 14.1079C24.5539 13.9491 24.5539 13.695 24.5539 13.1857V10.9109C24.5539 10.4016 24.5539 10.1463 24.4327 9.98871C24.3116 9.83109 24.0046 9.74758 23.3906 9.58291C21.0969 8.96421 19.6608 6.56588 20.2524 4.28635C20.4159 3.65942 20.4971 3.34537 20.4194 3.16188C20.3418 2.97839 20.1183 2.85135 19.6725 2.59847L17.6435 1.44576C17.206 1.19875 16.9872 1.07407 16.7908 1.09995C16.5943 1.12583 16.372 1.34696 15.9286 1.7904C14.2125 3.50181 11.3731 3.50181 9.65576 1.7904C9.21232 1.34813 8.99119 1.127 8.79476 1.09995C8.59833 1.07407 8.37955 1.19758 7.94199 1.44694L5.913 2.59847C5.46603 2.85135 5.24255 2.97839 5.16609 3.16306C5.08846 3.34537 5.16962 3.65942 5.33194 4.28635C5.92358 6.56588 4.48741 8.96421 2.19259 9.58291C1.5786 9.74758 1.2716 9.82992 1.15045 9.98871C1.0293 10.1475 1.0293 10.4016 1.0293 10.9109V13.1857C1.0293 13.695 1.0293 13.9502 1.15045 14.1079C1.2716 14.2655 1.5786 14.349 2.19259 14.5148C4.48623 15.1335 5.92241 17.5319 5.33076 19.8102C5.16727 20.4371 5.08611 20.7512 5.16374 20.9347C5.24137 21.1182 5.46485 21.2452 5.91065 21.4993L7.93964 22.6496C8.3772 22.899 8.59598 23.0225 8.79241 22.9966C8.98884 22.9707 9.21114 22.7496 9.65458 22.3062C11.3719 20.5924 14.2136 20.5924 15.9309 22.3062C16.3744 22.7484 16.5955 22.9696 16.7919 22.9966C16.9884 23.0225 17.2071 22.899 17.6459 22.6496L19.6737 21.4981C20.1207 21.2452 20.3441 21.1182 20.4206 20.9335C20.4971 20.7488 20.4171 20.4371 20.2548 19.8102C19.6619 17.5319 21.0969 15.1335 23.3906 14.5148Z" stroke="black" stroke-width="1.5" stroke-linecap="round" stroke-linejoin="round"/>
</svg>
