<svg width="24" height="26" viewBox="0 0 24 26" fill="none" xmlns="http://www.w3.org/2000/svg">
<path fill-rule="evenodd" clip-rule="evenodd" d="M3.42857 0C2.51926 0 1.64719 0.34241 1.00421 0.951903C0.361223 1.5614 0 2.38805 0 3.25V26L6 22.75L12 26L18 22.75L24 26V3.25C24 2.38805 23.6388 1.5614 22.9958 0.951903C22.3528 0.34241 21.4807 0 20.5714 0H3.42857ZM7.71429 4.875C7.0323 4.875 6.37825 5.13181 5.89601 5.58893C5.41377 6.04605 5.14286 6.66603 5.14286 7.3125C5.14286 7.95897 5.41377 8.57895 5.89601 9.03607C6.37825 9.49319 7.0323 9.75 7.71429 9.75C8.39627 9.75 9.05032 9.49319 9.53256 9.03607C10.0148 8.57895 10.2857 7.95897 10.2857 7.3125C10.2857 6.66603 10.0148 6.04605 9.53256 5.58893C9.05032 5.13181 8.39627 4.875 7.71429 4.875ZM18.3549 5.35113C18.0334 5.04648 17.5974 4.87535 17.1429 4.87535C16.6883 4.87535 16.2523 5.04648 15.9309 5.35113L5.64514 15.1011C5.48141 15.251 5.35081 15.4303 5.26097 15.6286C5.17113 15.8268 5.12383 16.0401 5.12186 16.2558C5.11988 16.4716 5.16325 16.6856 5.24945 16.8853C5.33564 17.085 5.46293 17.2664 5.62389 17.419C5.78485 17.5716 5.97626 17.6923 6.18694 17.774C6.39762 17.8557 6.62335 17.8968 6.85097 17.8949C7.0786 17.893 7.30354 17.8482 7.51269 17.763C7.72184 17.6779 7.91101 17.5541 8.06914 17.3989L18.3549 7.64887C18.6762 7.34414 18.8568 6.93089 18.8568 6.5C18.8568 6.06911 18.6762 5.65586 18.3549 5.35113ZM16.2857 13C15.6037 13 14.9497 13.2568 14.4674 13.7139C13.9852 14.171 13.7143 14.791 13.7143 15.4375C13.7143 16.084 13.9852 16.704 14.4674 17.1611C14.9497 17.6182 15.6037 17.875 16.2857 17.875C16.9677 17.875 17.6218 17.6182 18.104 17.1611C18.5862 16.704 18.8571 16.084 18.8571 15.4375C18.8571 14.791 18.5862 14.171 18.104 13.7139C17.6218 13.2568 16.9677 13 16.2857 13Z" fill="white"/>
</svg>
