<svg width="22" height="21" viewBox="0 0 22 21" fill="none" xmlns="http://www.w3.org/2000/svg">
<path d="M21.12 19.327H18.689V3.872C18.689 2.84508 18.2811 1.86022 17.5549 1.13408C16.8288 0.407942 15.8439 0 14.817 0H7.183C6.15507 -4.12461e-06 5.16907 0.407586 4.44119 1.13341C3.7133 1.85924 3.30291 2.84407 3.3 3.872V19.327H0.825C0.606196 19.327 0.396354 19.4139 0.241637 19.5686C0.0869193 19.7234 0 19.9332 0 20.152C0 20.3708 0.0869193 20.5806 0.241637 20.7354C0.396354 20.8901 0.606196 20.977 0.825 20.977H21.175C21.3938 20.977 21.6036 20.8901 21.7584 20.7354C21.9131 20.5806 22 20.3708 22 20.152C22 19.9332 21.9131 19.7234 21.7584 19.5686C21.6036 19.4139 21.3938 19.327 21.175 19.327H21.12ZM12.661 19.327H9.229V14.553C9.22756 14.3684 9.29866 14.1907 9.427 14.058C9.49235 13.994 9.56974 13.9435 9.6547 13.9095C9.73966 13.8755 9.83051 13.8587 9.922 13.86H11.957C12.0489 13.8585 12.1402 13.8754 12.2256 13.9096C12.3109 13.9437 12.3886 13.9945 12.4542 14.059C12.5197 14.1235 12.5717 14.2004 12.6072 14.2852C12.6427 14.37 12.661 14.4611 12.661 14.553V19.327ZM13.992 9.79H7.887C7.6682 9.79 7.45835 9.70308 7.30364 9.54836C7.14892 9.39365 7.062 9.1838 7.062 8.965C7.062 8.7462 7.14892 8.53636 7.30364 8.38164C7.45835 8.22692 7.6682 8.14 7.887 8.14H13.992C14.2108 8.14 14.4206 8.22692 14.5754 8.38164C14.7301 8.53636 14.817 8.7462 14.817 8.965C14.817 9.1838 14.7301 9.39365 14.5754 9.54836C14.4206 9.70308 14.2108 9.79 13.992 9.79ZM13.992 5.72H7.887C7.6682 5.72 7.45835 5.63308 7.30364 5.47836C7.14892 5.32365 7.062 5.1138 7.062 4.895C7.062 4.6762 7.14892 4.46635 7.30364 4.31164C7.45835 4.15692 7.6682 4.07 7.887 4.07H13.992C14.2108 4.07 14.4206 4.15692 14.5754 4.31164C14.7301 4.46635 14.817 4.6762 14.817 4.895C14.817 5.1138 14.7301 5.32365 14.5754 5.47836C14.4206 5.63308 14.2108 5.72 13.992 5.72Z" fill="white"/>
</svg>
