<svg width="24" height="23" viewBox="0 0 24 23" fill="none" xmlns="http://www.w3.org/2000/svg">
<path d="M1 21.9012H23M7.8747 1H16.1253C17.0005 1 17.8399 1.34768 18.4587 1.96655C19.0776 2.58542 19.4253 3.42479 19.4253 4.3V21.9H4.5747V4.3C4.5747 3.42479 4.92238 2.58542 5.54125 1.96655C6.16012 1.34768 6.99949 1 7.8747 1Z" stroke="black" stroke-width="1.5" stroke-linecap="round" stroke-linejoin="round"/>
<path d="M10.9007 14.2012H13.1007C13.3173 14.2012 13.5318 14.2438 13.7319 14.3267C13.932 14.4096 14.1138 14.5311 14.267 14.6843C14.4202 14.8374 14.5416 15.0193 14.6245 15.2194C14.7074 15.4195 14.7501 15.634 14.7501 15.8506V21.9012H9.25247V15.8506C9.25247 15.4131 9.42624 14.9936 9.73557 14.6843C10.0449 14.375 10.4644 14.2012 10.9019 14.2012M8.70068 5.40118H15.3007M8.70068 9.80118H15.3007" stroke="black" stroke-width="1.5" stroke-linecap="round" stroke-linejoin="round"/>
</svg>
